<?xml version="1.0" encoding="UTF-8"?>
<svg id="_레이어_2" data-name="레이어 2" xmlns="http://www.w3.org/2000/svg" viewBox="0 0 402.6 187.06">
  <defs>
    <style>
      .cls-1 {
        fill: #fff;
      }
    </style>
  </defs>
  <g id="_레이어_2-2" data-name=" 레이어 2">
    <g id="uuid-487617b0-fbac-4907-b4ff-dde2d4fdc382" data-name=" 레이어 2-2">
      <g id="uuid-8026d415-6991-46d8-ba7a-89cbf4552935">
        <g id="uuid-e62dba83-76a8-498e-990e-2a455cacc4a8">
          <g id="Layer_2" data-name="Layer 2">
            <g id="Layer_1-2" data-name="Layer 1-2">
              <g>
                <g>
                  <g>
                    <polygon class="cls-1" points="183.26 4.2 184.02 6.53 186.47 6.53 184.49 7.97 185.25 10.31 183.26 8.86 181.28 10.31 182.04 7.97 180.05 6.53 182.51 6.53 183.26 4.2"/>
                    <polygon class="cls-1" points="184.2 11.9 184.96 14.24 187.41 14.24 185.42 15.68 186.18 18.01 184.2 16.57 182.22 18.01 182.97 15.68 180.99 14.24 183.44 14.24 184.2 11.9"/>
                    <polygon class="cls-1" points="182.71 19.56 183.47 21.89 185.92 21.89 183.94 23.34 184.7 25.67 182.71 24.23 180.73 25.67 181.49 23.34 179.5 21.89 181.96 21.89 182.71 19.56"/>
                    <polygon class="cls-1" points="179.29 26.68 180.04 29.01 182.49 29.01 180.51 30.45 181.27 32.78 179.29 31.34 177.3 32.78 178.06 30.45 176.08 29.01 178.53 29.01 179.29 26.68"/>
                    <polygon class="cls-1" points="175.86 33.8 176.61 36.13 179.07 36.13 177.08 37.57 177.84 39.9 175.86 38.46 173.87 39.9 174.63 37.57 172.65 36.13 175.1 36.13 175.86 33.8"/>
                    <polygon class="cls-1" points="171.81 40.56 172.56 42.9 175.01 42.9 173.03 44.34 173.79 46.67 171.81 45.23 169.82 46.67 170.58 44.34 168.6 42.9 171.05 42.9 171.81 40.56"/>
                    <polygon class="cls-1" points="167.54 47.21 168.3 49.54 170.75 49.54 168.77 50.99 169.52 53.32 167.54 51.88 165.56 53.32 166.31 50.99 164.33 49.54 166.78 49.54 167.54 47.21"/>
                    <polygon class="cls-1" points="163.03 53.69 163.79 56.02 166.24 56.02 164.26 57.47 165.01 59.8 163.03 58.36 161.05 59.8 161.8 57.47 159.82 56.02 162.27 56.02 163.03 53.69"/>
                    <polygon class="cls-1" points="158.29 60.01 159.05 62.34 161.5 62.34 159.51 63.78 160.27 66.12 158.29 64.67 156.31 66.12 157.06 63.78 155.08 62.34 157.53 62.34 158.29 60.01"/>
                    <polygon class="cls-1" points="153.3 66.13 154.06 68.46 156.51 68.46 154.53 69.9 155.28 72.23 153.3 70.79 151.32 72.23 152.07 69.9 150.09 68.46 152.54 68.46 153.3 66.13"/>
                    <polygon class="cls-1" points="148.05 72.03 148.8 74.36 151.26 74.36 149.27 75.8 150.03 78.13 148.05 76.69 146.06 78.13 146.82 75.8 144.84 74.36 147.29 74.36 148.05 72.03"/>
                    <polygon class="cls-1" points="142.73 77.86 143.48 80.2 145.94 80.2 143.95 81.64 144.71 83.97 142.73 82.53 140.74 83.97 141.5 81.64 139.52 80.2 141.97 80.2 142.73 77.86"/>
                    <polygon class="cls-1" points="137.26 83.57 138.02 85.9 140.47 85.9 138.48 87.34 139.24 89.67 137.26 88.23 135.28 89.67 136.03 87.34 134.05 85.9 136.5 85.9 137.26 83.57"/>
                    <polygon class="cls-1" points="135.66 79.25 136.42 81.59 138.87 81.59 136.89 83.03 137.65 85.36 135.66 83.92 133.68 85.36 134.44 83.03 132.45 81.59 134.91 81.59 135.66 79.25"/>
                    <polygon class="cls-1" points="136.23 71.38 136.99 73.71 139.44 73.71 137.46 75.15 138.22 77.48 136.23 76.04 134.25 77.48 135.01 75.15 133.02 73.71 135.47 73.71 136.23 71.38"/>
                    <polygon class="cls-1" points="136.8 63.5 137.56 65.83 140.01 65.83 138.03 67.27 138.78 69.6 136.8 68.16 134.82 69.6 135.57 67.27 133.59 65.83 136.04 65.83 136.8 63.5"/>
                    <polygon class="cls-1" points="137.37 55.62 138.13 57.95 140.58 57.95 138.59 59.39 139.35 61.72 137.37 60.28 135.39 61.72 136.14 59.39 134.16 57.95 136.61 57.95 137.37 55.62"/>
                    <polygon class="cls-1" points="138.14 47.76 138.9 50.09 141.35 50.09 139.37 51.53 140.13 53.87 138.14 52.42 136.16 53.87 136.92 51.53 134.93 50.09 137.38 50.09 138.14 47.76"/>
                    <polygon class="cls-1" points="139.31 39.95 140.07 42.28 142.52 42.28 140.54 43.72 141.3 46.05 139.31 44.61 137.33 46.05 138.09 43.72 136.1 42.28 138.56 42.28 139.31 39.95"/>
                    <polygon class="cls-1" points="140.49 32.14 141.24 34.47 143.69 34.47 141.71 35.91 142.47 38.24 140.49 36.8 138.5 38.24 139.26 35.91 137.28 34.47 139.73 34.47 140.49 32.14"/>
                    <polygon class="cls-1" points="142.66 24.93 143.41 27.26 145.87 27.26 143.88 28.7 144.64 31.03 142.66 29.59 140.67 31.03 141.43 28.7 139.45 27.26 141.9 27.26 142.66 24.93"/>
                    <polygon class="cls-1" points="142.52 16.66 143.28 18.99 145.73 18.99 143.75 20.43 144.51 22.76 142.52 21.32 140.54 22.76 141.3 20.43 139.31 18.99 141.76 18.99 142.52 16.66"/>
                    <polygon class="cls-1" points="137.73 22.41 138.49 24.74 140.94 24.74 138.95 26.18 139.71 28.52 137.73 27.08 135.74 28.52 136.5 26.18 134.52 24.74 136.97 24.74 137.73 22.41"/>
                    <polygon class="cls-1" points="133.06 28.79 133.82 31.12 136.27 31.12 134.29 32.56 135.05 34.89 133.06 33.45 131.08 34.89 131.84 32.56 129.85 31.12 132.31 31.12 133.06 28.79"/>
                    <polygon class="cls-1" points="128.4 35.16 129.16 37.49 131.61 37.49 129.62 38.94 130.38 41.27 128.4 39.83 126.42 41.27 127.17 38.94 125.19 37.49 127.64 37.49 128.4 35.16"/>
                    <polygon class="cls-1" points="123.73 41.54 124.49 43.87 126.94 43.87 124.96 45.31 125.72 47.64 123.73 46.2 121.75 47.64 122.51 45.31 120.53 43.87 122.98 43.87 123.73 41.54"/>
                    <polygon class="cls-1" points="119.07 47.91 119.83 50.24 122.28 50.24 120.3 51.69 121.05 54.02 119.07 52.58 117.09 54.02 117.84 51.69 115.86 50.24 118.31 50.24 119.07 47.91"/>
                    <polygon class="cls-1" points="114.41 54.29 115.17 56.62 117.62 56.62 115.64 58.07 116.39 60.4 114.41 58.96 112.43 60.4 113.19 58.07 111.2 56.62 113.65 56.62 114.41 54.29"/>
                    <polygon class="cls-1" points="109.76 60.67 110.51 63.01 112.96 63.01 110.98 64.45 111.74 66.78 109.76 65.34 107.77 66.78 108.53 64.45 106.55 63.01 109 63.01 109.76 60.67"/>
                    <polygon class="cls-1" points="105.1 67.06 105.86 69.39 108.31 69.39 106.32 70.83 107.08 73.16 105.1 71.72 103.12 73.16 103.87 70.83 101.89 69.39 104.34 69.39 105.1 67.06"/>
                    <polygon class="cls-1" points="100.44 73.44 101.2 75.77 103.65 75.77 101.67 77.21 102.43 79.54 100.44 78.1 98.46 79.54 99.22 77.21 97.23 75.77 99.69 75.77 100.44 73.44"/>
                    <polygon class="cls-1" points="94.49 79.93 95.25 82.26 97.7 82.26 95.72 83.7 96.48 86.03 94.49 84.59 92.51 86.03 93.27 83.7 91.28 82.26 93.73 82.26 94.49 79.93"/>
                    <polygon class="cls-1" points="92.52 71.89 93.28 74.22 95.73 74.22 93.75 75.66 94.5 77.99 92.52 76.55 90.54 77.99 91.29 75.66 89.31 74.22 91.76 74.22 92.52 71.89"/>
                    <polygon class="cls-1" points="92.55 63.99 93.31 66.32 95.76 66.32 93.77 67.76 94.53 70.09 92.55 68.65 90.57 70.09 91.32 67.76 89.34 66.32 91.79 66.32 92.55 63.99"/>
                    <polygon class="cls-1" points="92.58 56.09 93.33 58.42 95.79 58.42 93.8 59.86 94.56 62.19 92.58 60.75 90.59 62.19 91.35 59.86 89.37 58.42 91.82 58.42 92.58 56.09"/>
                    <polygon class="cls-1" points="92.61 48.19 93.36 50.52 95.81 50.52 93.83 51.96 94.59 54.29 92.61 52.85 90.62 54.29 91.38 51.96 89.4 50.52 91.85 50.52 92.61 48.19"/>
                    <polygon class="cls-1" points="93.4 40.38 94.16 42.71 96.61 42.71 94.63 44.15 95.38 46.48 93.4 45.04 91.42 46.48 92.17 44.15 90.19 42.71 92.64 42.71 93.4 40.38"/>
                    <polygon class="cls-1" points="95.11 32.67 95.87 35 98.32 35 96.34 36.44 97.1 38.77 95.11 37.33 93.13 38.77 93.89 36.44 91.9 35 94.35 35 95.11 32.67"/>
                    <polygon class="cls-1" points="97.27 25.14 98.03 27.47 100.48 27.47 98.5 28.91 99.26 31.24 97.27 29.8 95.29 31.24 96.05 28.91 94.06 27.47 96.52 27.47 97.27 25.14"/>
                    <polygon class="cls-1" points="101.44 18.42 102.19 20.75 104.65 20.75 102.66 22.2 103.42 24.53 101.44 23.09 99.45 24.53 100.21 22.2 98.23 20.75 100.68 20.75 101.44 18.42"/>
                    <polygon class="cls-1" points="102.67 12.96 103.43 15.29 105.88 15.29 103.9 16.73 104.66 19.07 102.67 17.63 100.69 19.07 101.45 16.73 99.46 15.29 101.91 15.29 102.67 12.96"/>
                    <polygon class="cls-1" points="94.88 14.24 95.63 16.57 98.09 16.57 96.1 18.02 96.86 20.35 94.88 18.91 92.89 20.35 93.65 18.02 91.67 16.57 94.12 16.57 94.88 14.24"/>
                    <polygon class="cls-1" points="87.27 16.18 88.03 18.51 90.48 18.51 88.5 19.95 89.25 22.28 87.27 20.84 85.29 22.28 86.05 19.95 84.06 18.51 86.51 18.51 87.27 16.18"/>
                    <polygon class="cls-1" points="79.99 19.25 80.75 21.58 83.2 21.58 81.22 23.02 81.97 25.35 79.99 23.91 78.01 25.35 78.77 23.02 76.78 21.58 79.23 21.58 79.99 19.25"/>
                    <polygon class="cls-1" points="74.79 25.13 75.55 27.46 78 27.46 76.02 28.9 76.77 31.23 74.79 29.79 72.81 31.23 73.56 28.9 71.58 27.46 74.03 27.46 74.79 25.13"/>
                    <polygon class="cls-1" points="70.8 31.81 71.56 34.14 74.01 34.14 72.03 35.58 72.79 37.91 70.8 36.47 68.82 37.91 69.58 35.58 67.59 34.14 70.04 34.14 70.8 31.81"/>
                    <polygon class="cls-1" points="69.9 39.44 70.66 41.77 73.11 41.77 71.13 43.21 71.88 45.54 69.9 44.1 67.92 45.54 68.68 43.21 66.69 41.77 69.14 41.77 69.9 39.44"/>
                    <polygon class="cls-1" points="73.05 46.38 73.81 48.71 76.26 48.71 74.28 50.15 75.04 52.48 73.05 51.04 71.07 52.48 71.83 50.15 69.84 48.71 72.29 48.71 73.05 46.38"/>
                  </g>
                  <g>
                    <polygon class="cls-1" points="211.33 .62 212.09 2.95 214.54 2.95 212.55 4.39 213.31 6.72 211.33 5.28 209.34 6.72 210.1 4.39 208.12 2.95 210.57 2.95 211.33 .62"/>
                    <polygon class="cls-1" points="203.45 1.21 204.21 3.55 206.66 3.55 204.68 4.99 205.43 7.32 203.45 5.88 201.47 7.32 202.23 4.99 200.24 3.55 202.69 3.55 203.45 1.21"/>
                    <polygon class="cls-1" points="195.57 1.81 196.33 4.14 198.78 4.14 196.8 5.58 197.56 7.91 195.57 6.47 193.59 7.91 194.35 5.58 192.36 4.14 194.82 4.14 195.57 1.81"/>
                  </g>
                  <g>
                    <polygon class="cls-1" points="196.25 78.96 197.01 81.29 199.46 81.29 197.47 82.73 198.23 85.06 196.25 83.62 194.26 85.06 195.02 82.73 193.04 81.29 195.49 81.29 196.25 78.96"/>
                    <polygon class="cls-1" points="188.36 78.55 189.12 80.88 191.57 80.88 189.58 82.32 190.34 84.66 188.36 83.22 186.38 84.66 187.13 82.32 185.15 80.88 187.6 80.88 188.36 78.55"/>
                    <polygon class="cls-1" points="180.47 78.87 181.22 81.2 183.68 81.2 181.69 82.64 182.45 84.98 180.47 83.53 178.48 84.98 179.24 82.64 177.26 81.2 179.71 81.2 180.47 78.87"/>
                    <polygon class="cls-1" points="172.57 79.2 173.33 81.53 175.78 81.53 173.8 82.97 174.56 85.31 172.57 83.86 170.59 85.31 171.35 82.97 169.36 81.53 171.82 81.53 172.57 79.2"/>
                  </g>
                  <g>
                    <polygon class="cls-1" points="201.3 9.14 202.06 11.48 204.51 11.48 202.53 12.92 203.28 15.25 201.3 13.81 199.32 15.25 200.07 12.92 198.09 11.48 200.54 11.48 201.3 9.14"/>
                    <polygon class="cls-1" points="199.5 16.84 200.25 19.17 202.71 19.17 200.72 20.61 201.48 22.94 199.5 21.5 197.51 22.94 198.27 20.61 196.29 19.17 198.74 19.17 199.5 16.84"/>
                    <polygon class="cls-1" points="197.81 24.55 198.57 26.88 201.02 26.88 199.04 28.33 199.8 30.66 197.81 29.22 195.83 30.66 196.59 28.33 194.6 26.88 197.06 26.88 197.81 24.55"/>
                    <polygon class="cls-1" points="196.15 32.28 196.91 34.61 199.36 34.61 197.38 36.05 198.13 38.38 196.15 36.94 194.17 38.38 194.93 36.05 192.94 34.61 195.39 34.61 196.15 32.28"/>
                    <polygon class="cls-1" points="194.5 40 195.26 42.33 197.71 42.33 195.73 43.77 196.49 46.11 194.5 44.66 192.52 46.11 193.28 43.77 191.29 42.33 193.75 42.33 194.5 40"/>
                    <polygon class="cls-1" points="192.9 47.74 193.66 50.07 196.11 50.07 194.13 51.51 194.89 53.84 192.9 52.4 190.92 53.84 191.68 51.51 189.69 50.07 192.15 50.07 192.9 47.74"/>
                    <polygon class="cls-1" points="191.3 55.47 192.06 57.8 194.51 57.8 192.53 59.25 193.29 61.58 191.3 60.14 189.32 61.58 190.08 59.25 188.1 57.8 190.55 57.8 191.3 55.47"/>
                    <polygon class="cls-1" points="189.75 63.22 190.51 65.55 192.96 65.55 190.98 66.99 191.74 69.32 189.75 67.88 187.77 69.32 188.53 66.99 186.54 65.55 189 65.55 189.75 63.22"/>
                    <polygon class="cls-1" points="188.23 70.97 188.98 73.3 191.44 73.3 189.45 74.74 190.21 77.07 188.23 75.63 186.24 77.07 187 74.74 185.02 73.3 187.47 73.3 188.23 70.97"/>
                  </g>
                  <g>
                    <polygon class="cls-1" points="205.05 66.35 205.81 68.68 208.26 68.68 206.28 70.12 207.04 72.45 205.05 71.01 203.07 72.45 203.83 70.12 201.84 68.68 204.3 68.68 205.05 66.35"/>
                    <polygon class="cls-1" points="208.04 73.28 208.79 75.61 211.25 75.61 209.26 77.05 210.02 79.38 208.04 77.94 206.05 79.38 206.81 77.05 204.83 75.61 207.28 75.61 208.04 73.28"/>
                    <polygon class="cls-1" points="214.88 77.11 215.63 79.44 218.09 79.44 216.1 80.88 216.86 83.21 214.88 81.77 212.89 83.21 213.65 80.88 211.67 79.44 214.12 79.44 214.88 77.11"/>
                    <polygon class="cls-1" points="222.73 77.93 223.49 80.26 225.94 80.26 223.96 81.7 224.72 84.03 222.73 82.59 220.75 84.03 221.51 81.7 219.52 80.26 221.98 80.26 222.73 77.93"/>
                    <polygon class="cls-1" points="230.48 76.69 231.24 79.03 233.69 79.03 231.7 80.47 232.46 82.8 230.48 81.36 228.5 82.8 229.25 80.47 227.27 79.03 229.72 79.03 230.48 76.69"/>
                    <polygon class="cls-1" points="237.58 73.49 238.34 75.82 240.79 75.82 238.8 77.26 239.56 79.59 237.58 78.15 235.59 79.59 236.35 77.26 234.37 75.82 236.82 75.82 237.58 73.49"/>
                    <polygon class="cls-1" points="243.82 68.79 244.58 71.12 247.03 71.12 245.04 72.56 245.8 74.89 243.82 73.45 241.84 74.89 242.59 72.56 240.61 71.12 243.06 71.12 243.82 68.79"/>
                    <polygon class="cls-1" points="248.81 62.66 249.56 64.99 252.02 64.99 250.03 66.43 250.79 68.77 248.81 67.32 246.82 68.77 247.58 66.43 245.6 64.99 248.05 64.99 248.81 62.66"/>
                    <polygon class="cls-1" points="250.48 54.98 251.24 57.31 253.69 57.31 251.71 58.75 252.47 61.08 250.48 59.64 248.5 61.08 249.26 58.75 247.28 57.31 249.73 57.31 250.48 54.98"/>
                    <polygon class="cls-1" points="248.71 47.59 249.47 49.93 251.92 49.93 249.94 51.37 250.69 53.7 248.71 52.26 246.73 53.7 247.48 51.37 245.5 49.93 247.95 49.93 248.71 47.59"/>
                    <polygon class="cls-1" points="244.62 41.04 245.38 43.37 247.83 43.37 245.85 44.81 246.61 47.15 244.62 45.7 242.64 47.15 243.4 44.81 241.41 43.37 243.87 43.37 244.62 41.04"/>
                    <polygon class="cls-1" points="238.57 35.96 239.33 38.29 241.78 38.29 239.8 39.73 240.56 42.07 238.57 40.62 236.59 42.07 237.35 39.73 235.37 38.29 237.82 38.29 238.57 35.96"/>
                    <polygon class="cls-1" points="232.72 30.66 233.48 32.99 235.93 32.99 233.95 34.43 234.71 36.76 232.72 35.32 230.74 36.76 231.5 34.43 229.51 32.99 231.96 32.99 232.72 30.66"/>
                    <polygon class="cls-1" points="228.63 24.22 229.39 26.55 231.84 26.55 229.86 27.99 230.61 30.33 228.63 28.89 226.65 30.33 227.4 27.99 225.42 26.55 227.87 26.55 228.63 24.22"/>
                    <polygon class="cls-1" points="226.51 16.69 227.27 19.03 229.72 19.03 227.74 20.47 228.49 22.8 226.51 21.36 224.53 22.8 225.28 20.47 223.3 19.03 225.75 19.03 226.51 16.69"/>
                    <polygon class="cls-1" points="229.73 9.48 230.49 11.81 232.94 11.81 230.95 13.25 231.71 15.58 229.73 14.14 227.75 15.58 228.5 13.25 226.52 11.81 228.97 11.81 229.73 9.48"/>
                    <polygon class="cls-1" points="234.88 4 235.64 6.33 238.09 6.33 236.11 7.77 236.87 10.1 234.88 8.66 232.9 10.1 233.66 7.77 231.67 6.33 234.13 6.33 234.88 4"/>
                    <polygon class="cls-1" points="241.7 0 242.45 2.33 244.91 2.33 242.92 3.77 243.68 6.1 241.7 4.66 239.71 6.1 240.47 3.77 238.49 2.33 240.94 2.33 241.7 0"/>
                    <polygon class="cls-1" points="249.53 .03 250.29 2.36 252.74 2.36 250.76 3.81 251.52 6.14 249.53 4.7 247.55 6.14 248.31 3.81 246.32 2.36 248.78 2.36 249.53 .03"/>
                    <polygon class="cls-1" points="255.91 2.84 256.67 5.17 259.12 5.17 257.13 6.61 257.89 8.95 255.91 7.5 253.92 8.95 254.68 6.61 252.7 5.17 255.15 5.17 255.91 2.84"/>
                    <polygon class="cls-1" points="258.85 9.93 259.61 12.26 262.06 12.26 260.08 13.7 260.84 16.03 258.85 14.59 256.87 16.03 257.63 13.7 255.65 12.26 258.1 12.26 258.85 9.93"/>
                    <polygon class="cls-1" points="258.63 17.83 259.39 20.16 261.84 20.16 259.85 21.6 260.61 23.93 258.63 22.49 256.65 23.93 257.4 21.6 255.42 20.16 257.87 20.16 258.63 17.83"/>
                  </g>
                  <g>
                    <polygon class="cls-1" points="265.17 83.63 265.93 85.96 268.38 85.96 266.39 87.4 267.15 89.74 265.17 88.3 263.19 89.74 263.94 87.4 261.96 85.96 264.41 85.96 265.17 83.63"/>
                    <polygon class="cls-1" points="272.34 83.48 273.1 85.81 275.55 85.81 273.57 87.26 274.32 89.59 272.34 88.15 270.36 89.59 271.11 87.26 269.13 85.81 271.58 85.81 272.34 83.48"/>
                    <polygon class="cls-1" points="277.73 78.23 278.49 80.56 280.94 80.56 278.96 82 279.71 84.33 277.73 82.89 275.75 84.33 276.51 82 274.52 80.56 276.97 80.56 277.73 78.23"/>
                    <polygon class="cls-1" points="281.33 71.19 282.08 73.52 284.54 73.52 282.55 74.97 283.31 77.3 281.33 75.86 279.34 77.3 280.1 74.97 278.12 73.52 280.57 73.52 281.33 71.19"/>
                    <polygon class="cls-1" points="284.14 63.83 284.89 66.17 287.35 66.17 285.36 67.61 286.12 69.94 284.14 68.5 282.15 69.94 282.91 67.61 280.93 66.17 283.38 66.17 284.14 63.83"/>
                    <polygon class="cls-1" points="286.56 56.32 287.32 58.65 289.77 58.65 287.79 60.09 288.55 62.42 286.56 60.98 284.58 62.42 285.34 60.09 283.36 58.65 285.81 58.65 286.56 56.32"/>
                    <polygon class="cls-1" points="288.76 48.73 289.52 51.06 291.97 51.06 289.99 52.5 290.74 54.84 288.76 53.39 286.78 54.84 287.54 52.5 285.55 51.06 288 51.06 288.76 48.73"/>
                    <polygon class="cls-1" points="290.73 41.08 291.49 43.41 293.94 43.41 291.96 44.86 292.72 47.19 290.73 45.75 288.75 47.19 289.51 44.86 287.52 43.41 289.98 43.41 290.73 41.08"/>
                    <polygon class="cls-1" points="292.49 33.38 293.25 35.71 295.7 35.71 293.72 37.16 294.48 39.49 292.49 38.05 290.51 39.49 291.27 37.16 289.29 35.71 291.74 35.71 292.49 33.38"/>
                    <polygon class="cls-1" points="294.26 25.68 295.01 28.01 297.47 28.01 295.48 29.45 296.24 31.79 294.26 30.35 292.27 31.79 293.03 29.45 291.05 28.01 293.5 28.01 294.26 25.68"/>
                    <polygon class="cls-1" points="296.02 17.98 296.78 20.31 299.23 20.31 297.24 21.75 298 24.09 296.02 22.64 294.03 24.09 294.79 21.75 292.81 20.31 295.26 20.31 296.02 17.98"/>
                    <polygon class="cls-1" points="297.34 10.33 298.1 12.66 300.55 12.66 298.57 14.11 299.33 16.44 297.34 15 295.36 16.44 296.12 14.11 294.13 12.66 296.58 12.66 297.34 10.33"/>
                    <polygon class="cls-1" points="290.48 8.9 291.24 11.23 293.69 11.23 291.71 12.67 292.46 15 290.48 13.56 288.5 15 289.25 12.67 287.27 11.23 289.72 11.23 290.48 8.9"/>
                    <polygon class="cls-1" points="282.77 10.18 283.53 12.51 285.98 12.51 284 13.95 284.75 16.28 282.77 14.84 280.79 16.28 281.55 13.95 279.56 12.51 282.01 12.51 282.77 10.18"/>
                    <polygon class="cls-1" points="275.96 13.85 276.71 16.18 279.17 16.18 277.18 17.63 277.94 19.96 275.96 18.52 273.97 19.96 274.73 17.63 272.75 16.18 275.2 16.18 275.96 13.85"/>
                    <polygon class="cls-1" points="271.23 20 271.99 22.33 274.44 22.33 272.46 23.78 273.22 26.11 271.23 24.67 269.25 26.11 270.01 23.78 268.02 22.33 270.47 22.33 271.23 20"/>
                    <polygon class="cls-1" points="269.05 27.47 269.81 29.81 272.26 29.81 270.28 31.25 271.03 33.58 269.05 32.14 267.07 33.58 267.82 31.25 265.84 29.81 268.29 29.81 269.05 27.47"/>
                    <polygon class="cls-1" points="270.85 34.98 271.61 37.31 274.06 37.31 272.08 38.75 272.83 41.08 270.85 39.64 268.87 41.08 269.62 38.75 267.64 37.31 270.09 37.31 270.85 34.98"/>
                  </g>
                  <g>
                    <polygon class="cls-1" points="314.11 41.29 314.87 43.62 317.32 43.62 315.34 45.06 316.09 47.39 314.11 45.95 312.13 47.39 312.88 45.06 310.9 43.62 313.35 43.62 314.11 41.29"/>
                    <polygon class="cls-1" points="306.31 42.53 307.07 44.87 309.52 44.87 307.54 46.31 308.3 48.64 306.31 47.2 304.33 48.64 305.09 46.31 303.1 44.87 305.55 44.87 306.31 42.53"/>
                    <polygon class="cls-1" points="298.41 42.5 299.17 44.83 301.62 44.83 299.64 46.27 300.4 48.61 298.41 47.17 296.43 48.61 297.19 46.27 295.2 44.83 297.65 44.83 298.41 42.5"/>
                  </g>
                  <g>
                    <polygon class="cls-1" points="347.98 3.08 348.74 5.42 351.19 5.42 349.21 6.86 349.97 9.19 347.98 7.75 346 9.19 346.76 6.86 344.77 5.42 347.23 5.42 347.98 3.08"/>
                    <polygon class="cls-1" points="341.51 .84 342.27 3.17 344.72 3.17 342.74 4.61 343.5 6.94 341.51 5.5 339.53 6.94 340.29 4.61 338.3 3.17 340.76 3.17 341.51 .84"/>
                    <polygon class="cls-1" points="334.9 4.37 335.66 6.7 338.11 6.7 336.13 8.14 336.89 10.47 334.9 9.03 332.92 10.47 333.68 8.14 331.69 6.7 334.15 6.7 334.9 4.37"/>
                    <polygon class="cls-1" points="330.52 10.8 331.28 13.14 333.73 13.14 331.75 14.58 332.51 16.91 330.52 15.47 328.54 16.91 329.3 14.58 327.32 13.14 329.77 13.14 330.52 10.8"/>
                    <polygon class="cls-1" points="328.44 18.42 329.2 20.75 331.65 20.75 329.66 22.2 330.42 24.53 328.44 23.09 326.45 24.53 327.21 22.2 325.23 20.75 327.68 20.75 328.44 18.42"/>
                    <polygon class="cls-1" points="326.38 26.05 327.14 28.38 329.59 28.38 327.61 29.82 328.36 32.15 326.38 30.71 324.4 32.15 325.15 29.82 323.17 28.38 325.62 28.38 326.38 26.05"/>
                    <polygon class="cls-1" points="324.35 33.68 325.11 36.02 327.56 36.02 325.58 37.46 326.34 39.79 324.35 38.35 322.37 39.79 323.13 37.46 321.15 36.02 323.6 36.02 324.35 33.68"/>
                    <polygon class="cls-1" points="322.33 41.32 323.09 43.65 325.54 43.65 323.55 45.09 324.31 47.42 322.33 45.98 320.35 47.42 321.1 45.09 319.12 43.65 321.57 43.65 322.33 41.32"/>
                    <polygon class="cls-1" points="320.3 48.96 321.06 51.29 323.51 51.29 321.53 52.73 322.29 55.06 320.3 53.62 318.32 55.06 319.08 52.73 317.09 51.29 319.55 51.29 320.3 48.96"/>
                    <polygon class="cls-1" points="318.28 56.59 319.04 58.92 321.49 58.92 319.5 60.36 320.26 62.69 318.28 61.25 316.29 62.69 317.05 60.36 315.07 58.92 317.52 58.92 318.28 56.59"/>
                    <polygon class="cls-1" points="316.25 64.23 317.01 66.56 319.46 66.56 317.48 68 318.24 70.33 316.25 68.89 314.27 70.33 315.03 68 313.04 66.56 315.49 66.56 316.25 64.23"/>
                    <polygon class="cls-1" points="314.23 71.86 314.98 74.19 317.44 74.19 315.45 75.63 316.21 77.97 314.23 76.52 312.24 77.97 313 75.63 311.02 74.19 313.47 74.19 314.23 71.86"/>
                    <polygon class="cls-1" points="314.21 79.43 314.97 81.76 317.42 81.76 315.44 83.21 316.2 85.54 314.21 84.1 312.23 85.54 312.99 83.21 311 81.76 313.45 81.76 314.21 79.43"/>
                    <polygon class="cls-1" points="321.12 82.33 321.88 84.66 324.33 84.66 322.35 86.1 323.11 88.43 321.12 86.99 319.14 88.43 319.9 86.1 317.92 84.66 320.37 84.66 321.12 82.33"/>
                    <polygon class="cls-1" points="329 82.89 329.76 85.22 332.21 85.22 330.23 86.66 330.99 88.99 329 87.55 327.02 88.99 327.78 86.66 325.79 85.22 328.25 85.22 329 82.89"/>
                  </g>
                </g>
                <g>
                  <g>
                    <polygon class="cls-1" points="64.1 95.74 64.86 98.08 67.31 98.08 65.32 99.52 66.08 101.85 64.1 100.41 62.12 101.85 62.87 99.52 60.89 98.08 63.34 98.08 64.1 95.74"/>
                    <polygon class="cls-1" points="66.07 103.39 66.83 105.72 69.28 105.72 67.3 107.17 68.06 109.5 66.07 108.06 64.09 109.5 64.85 107.17 62.86 105.72 65.31 105.72 66.07 103.39"/>
                    <polygon class="cls-1" points="65.95 111.14 66.71 113.47 69.16 113.47 67.17 114.91 67.93 117.24 65.95 115.8 63.96 117.24 64.72 114.91 62.74 113.47 65.19 113.47 65.95 111.14"/>
                    <polygon class="cls-1" points="64.66 118.93 65.42 121.26 67.87 121.26 65.89 122.7 66.65 125.03 64.66 123.59 62.68 125.03 63.44 122.7 61.46 121.26 63.91 121.26 64.66 118.93"/>
                    <polygon class="cls-1" points="62.27 126.39 63.02 128.73 65.47 128.73 63.49 130.17 64.25 132.5 62.27 131.06 60.28 132.5 61.04 130.17 59.06 128.73 61.51 128.73 62.27 126.39"/>
                    <polygon class="cls-1" points="59.1 133.63 59.85 135.96 62.31 135.96 60.32 137.4 61.08 139.73 59.1 138.29 57.11 139.73 57.87 137.4 55.89 135.96 58.34 135.96 59.1 133.63"/>
                    <polygon class="cls-1" points="55.34 140.52 56.1 142.85 58.55 142.85 56.57 144.29 57.33 146.62 55.34 145.18 53.36 146.62 54.12 144.29 52.13 142.85 54.59 142.85 55.34 140.52"/>
                    <polygon class="cls-1" points="50.49 146.75 51.25 149.08 53.7 149.08 51.72 150.52 52.47 152.85 50.49 151.41 48.51 152.85 49.26 150.52 47.28 149.08 49.73 149.08 50.49 146.75"/>
                    <polygon class="cls-1" points="45.15 152.42 45.91 154.75 48.36 154.75 46.38 156.19 47.14 158.52 45.15 157.08 43.17 158.52 43.93 156.19 41.94 154.75 44.4 154.75 45.15 152.42"/>
                    <polygon class="cls-1" points="38.26 156.27 39.01 158.61 41.47 158.61 39.48 160.05 40.24 162.38 38.26 160.94 36.27 162.38 37.03 160.05 35.05 158.61 37.5 158.61 38.26 156.27"/>
                    <polygon class="cls-1" points="30.98 157.29 31.74 159.62 34.19 159.62 32.2 161.06 32.96 163.4 30.98 161.95 29 163.4 29.75 161.06 27.77 159.62 30.22 159.62 30.98 157.29"/>
                    <polygon class="cls-1" points="23.31 155.4 24.07 157.73 26.52 157.73 24.53 159.17 25.29 161.5 23.31 160.06 21.33 161.5 22.08 159.17 20.1 157.73 22.55 157.73 23.31 155.4"/>
                    <polygon class="cls-1" points="18.99 149.13 19.75 151.46 22.2 151.46 20.22 152.9 20.97 155.24 18.99 153.79 17.01 155.24 17.76 152.9 15.78 151.46 18.23 151.46 18.99 149.13"/>
                    <polygon class="cls-1" points="17.78 141.49 18.54 143.82 20.99 143.82 19 145.26 19.76 147.6 17.78 146.15 15.79 147.6 16.55 145.26 14.57 143.82 17.02 143.82 17.78 141.49"/>
                    <polygon class="cls-1" points="17.47 133.6 18.23 135.93 20.68 135.93 18.7 137.37 19.46 139.7 17.47 138.26 15.49 139.7 16.25 137.37 14.26 135.93 16.72 135.93 17.47 133.6"/>
                    <polygon class="cls-1" points="19.79 126.05 20.54 128.39 22.99 128.39 21.01 129.83 21.77 132.16 19.79 130.72 17.8 132.16 18.56 129.83 16.58 128.39 19.03 128.39 19.79 126.05"/>
                    <polygon class="cls-1" points="22.4 118.62 23.16 120.96 25.61 120.96 23.63 122.4 24.39 124.73 22.4 123.29 20.42 124.73 21.18 122.4 19.19 120.96 21.65 120.96 22.4 118.62"/>
                    <polygon class="cls-1" points="26.13 111.66 26.89 113.99 29.34 113.99 27.35 115.43 28.11 117.76 26.13 116.32 24.14 117.76 24.9 115.43 22.92 113.99 25.37 113.99 26.13 111.66"/>
                    <polygon class="cls-1" points="29.85 104.69 30.61 107.02 33.06 107.02 31.08 108.46 31.84 110.79 29.85 109.35 27.87 110.79 28.63 108.46 26.64 107.02 29.09 107.02 29.85 104.69"/>
                    <polygon class="cls-1" points="22.97 103.24 23.73 105.58 26.18 105.58 24.2 107.02 24.96 109.35 22.97 107.91 20.99 109.35 21.75 107.02 19.76 105.58 22.22 105.58 22.97 103.24"/>
                    <polygon class="cls-1" points="15.45 105.46 16.21 107.79 18.66 107.79 16.68 109.23 17.43 111.57 15.45 110.12 13.47 111.57 14.23 109.23 12.24 107.79 14.69 107.79 15.45 105.46"/>
                    <polygon class="cls-1" points="8.48 109.1 9.24 111.44 11.69 111.44 9.71 112.88 10.47 115.21 8.48 113.77 6.5 115.21 7.26 112.88 5.27 111.44 7.73 111.44 8.48 109.1"/>
                    <polygon class="cls-1" points="3.21 114.98 3.97 117.32 6.42 117.32 4.43 118.76 5.19 121.09 3.21 119.65 1.23 121.09 1.98 118.76 0 117.32 2.45 117.32 3.21 114.98"/>
                    <polygon class="cls-1" points="4.57 122.71 5.33 125.04 7.78 125.04 5.8 126.48 6.56 128.81 4.57 127.37 2.59 128.81 3.35 126.48 1.36 125.04 3.82 125.04 4.57 122.71"/>
                  </g>
                  <g>
                    <polygon class="cls-1" points="68.78 172.88 69.54 175.21 71.99 175.21 70.01 176.65 70.77 178.98 68.78 177.54 66.8 178.98 67.56 176.65 65.57 175.21 68.02 175.21 68.78 172.88"/>
                    <polygon class="cls-1" points="70.51 165.17 71.27 167.5 73.72 167.5 71.74 168.94 72.5 171.27 70.51 169.83 68.53 171.27 69.29 168.94 67.3 167.5 69.76 167.5 70.51 165.17"/>
                    <polygon class="cls-1" points="72.24 157.46 73 159.79 75.45 159.79 73.47 161.23 74.23 163.56 72.24 162.12 70.26 163.56 71.02 161.23 69.03 159.79 71.49 159.79 72.24 157.46"/>
                    <polygon class="cls-1" points="73.97 149.75 74.73 152.08 77.18 152.08 75.2 153.53 75.96 155.86 73.97 154.42 71.99 155.86 72.75 153.53 70.77 152.08 73.22 152.08 73.97 149.75"/>
                    <polygon class="cls-1" points="75.7 142.05 76.46 144.38 78.91 144.38 76.93 145.82 77.69 148.15 75.7 146.71 73.72 148.15 74.48 145.82 72.5 144.38 74.95 144.38 75.7 142.05"/>
                    <polygon class="cls-1" points="77.44 134.34 78.19 136.67 80.64 136.67 78.66 138.11 79.42 140.44 77.44 139 75.45 140.44 76.21 138.11 74.23 136.67 76.68 136.67 77.44 134.34"/>
                    <polygon class="cls-1" points="78.91 126.59 79.67 128.92 82.12 128.92 80.14 130.36 80.89 132.69 78.91 131.25 76.93 132.69 77.68 130.36 75.7 128.92 78.15 128.92 78.91 126.59"/>
                    <polygon class="cls-1" points="74.2 122.65 74.96 124.99 77.41 124.99 75.43 126.43 76.18 128.76 74.2 127.32 72.22 128.76 72.97 126.43 70.99 124.99 73.44 124.99 74.2 122.65"/>
                    <polygon class="cls-1" points="67.97 127.45 68.73 129.78 71.18 129.78 69.19 131.22 69.95 133.56 67.97 132.11 65.98 133.56 66.74 131.22 64.76 129.78 67.21 129.78 67.97 127.45"/>
                  </g>
                  <g>
                    <polygon class="cls-1" points="75.29 180.22 76.05 182.55 78.5 182.55 76.52 183.99 77.27 186.32 75.29 184.88 73.31 186.32 74.06 183.99 72.08 182.55 74.53 182.55 75.29 180.22"/>
                    <polygon class="cls-1" points="67.43 179.86 68.19 182.19 70.64 182.19 68.65 183.63 69.41 185.96 67.43 184.52 65.44 185.96 66.2 183.63 64.22 182.19 66.67 182.19 67.43 179.86"/>
                    <polygon class="cls-1" points="59.57 180.71 60.33 183.04 62.78 183.04 60.8 184.48 61.56 186.81 59.57 185.37 57.59 186.81 58.35 184.48 56.36 183.04 58.82 183.04 59.57 180.71"/>
                  </g>
                  <g>
                    <polygon class="cls-1" points="78.96 157.24 79.72 159.57 82.17 159.57 80.19 161.01 80.95 163.34 78.96 161.9 76.98 163.34 77.74 161.01 75.75 159.57 78.2 159.57 78.96 157.24"/>
                    <polygon class="cls-1" points="86.23 158.71 86.99 161.04 89.44 161.04 87.46 162.48 88.22 164.81 86.23 163.37 84.25 164.81 85.01 162.48 83.02 161.04 85.47 161.04 86.23 158.71"/>
                    <polygon class="cls-1" points="93.23 155.21 93.99 157.55 96.44 157.55 94.46 158.99 95.21 161.32 93.23 159.88 91.25 161.32 92.01 158.99 90.02 157.55 92.47 157.55 93.23 155.21"/>
                    <polygon class="cls-1" points="97.66 148.67 98.42 151.01 100.87 151.01 98.89 152.45 99.65 154.78 97.66 153.34 95.68 154.78 96.44 152.45 94.45 151.01 96.91 151.01 97.66 148.67"/>
                    <polygon class="cls-1" points="100.54 141.4 101.3 143.73 103.75 143.73 101.77 145.17 102.52 147.51 100.54 146.06 98.56 147.51 99.32 145.17 97.33 143.73 99.78 143.73 100.54 141.4"/>
                    <polygon class="cls-1" points="102.17 133.74 102.92 136.07 105.38 136.07 103.39 137.51 104.15 139.84 102.17 138.4 100.18 139.84 100.94 137.51 98.96 136.07 101.41 136.07 102.17 133.74"/>
                    <polygon class="cls-1" points="102 125.88 102.76 128.22 105.21 128.22 103.22 129.66 103.98 131.99 102 130.55 100.01 131.99 100.77 129.66 98.79 128.22 101.24 128.22 102 125.88"/>
                    <polygon class="cls-1" points="96.98 120.94 97.73 123.28 100.19 123.28 98.2 124.72 98.96 127.05 96.98 125.61 94.99 127.05 95.75 124.72 93.77 123.28 96.22 123.28 96.98 120.94"/>
                    <polygon class="cls-1" points="89.7 123.49 90.45 125.82 92.9 125.82 90.92 127.26 91.68 129.59 89.7 128.15 87.71 129.59 88.47 127.26 86.49 125.82 88.94 125.82 89.7 123.49"/>
                    <polygon class="cls-1" points="84.13 129.1 84.89 131.43 87.34 131.43 85.36 132.87 86.12 135.2 84.13 133.76 82.15 135.2 82.91 132.87 80.93 131.43 83.38 131.43 84.13 129.1"/>
                  </g>
                  <g>
                    <polygon class="cls-1" points="124.84 107.93 125.59 110.26 128.04 110.26 126.06 111.7 126.82 114.03 124.84 112.59 122.85 114.03 123.61 111.7 121.63 110.26 124.08 110.26 124.84 107.93"/>
                    <polygon class="cls-1" points="131.04 107.24 131.8 109.57 134.25 109.57 132.27 111.01 133.03 113.34 131.04 111.9 129.06 113.34 129.82 111.01 127.84 109.57 130.29 109.57 131.04 107.24"/>
                    <polygon class="cls-1" points="137.3 111.1 138.06 113.43 140.51 113.43 138.53 114.87 139.29 117.2 137.3 115.76 135.32 117.2 136.08 114.87 134.09 113.43 136.55 113.43 137.3 111.1"/>
                    <polygon class="cls-1" points="140.08 118.32 140.84 120.65 143.29 120.65 141.31 122.09 142.06 124.43 140.08 122.99 138.1 124.43 138.86 122.09 136.87 120.65 139.32 120.65 140.08 118.32"/>
                    <polygon class="cls-1" points="139.14 126.17 139.9 128.5 142.35 128.5 140.37 129.94 141.12 132.27 139.14 130.83 137.16 132.27 137.91 129.94 135.93 128.5 138.38 128.5 139.14 126.17"/>
                    <polygon class="cls-1" points="136.61 133.43 137.36 135.77 139.82 135.77 137.83 137.21 138.59 139.54 136.61 138.1 134.62 139.54 135.38 137.21 133.4 135.77 135.85 135.77 136.61 133.43"/>
                    <polygon class="cls-1" points="132.32 140.07 133.08 142.4 135.53 142.4 133.54 143.84 134.3 146.17 132.32 144.73 130.34 146.17 131.09 143.84 129.11 142.4 131.56 142.4 132.32 140.07"/>
                    <polygon class="cls-1" points="125.91 144.34 126.66 146.67 129.11 146.67 127.13 148.11 127.89 150.44 125.91 149 123.92 150.44 124.68 148.11 122.7 146.67 125.15 146.67 125.91 144.34"/>
                    <polygon class="cls-1" points="118.52 144.67 119.28 147 121.73 147 119.74 148.44 120.5 150.77 118.52 149.33 116.54 150.77 117.29 148.44 115.31 147 117.76 147 118.52 144.67"/>
                    <polygon class="cls-1" points="113.15 139.87 113.91 142.2 116.36 142.2 114.38 143.64 115.14 145.98 113.15 144.53 111.17 145.98 111.93 143.64 109.94 142.2 112.39 142.2 113.15 139.87"/>
                    <polygon class="cls-1" points="111.34 132.53 112.1 134.86 114.55 134.86 112.57 136.3 113.32 138.63 111.34 137.19 109.36 138.63 110.11 136.3 108.13 134.86 110.58 134.86 111.34 132.53"/>
                    <polygon class="cls-1" points="112.53 124.72 113.28 127.05 115.74 127.05 113.75 128.49 114.51 130.82 112.53 129.38 110.54 130.82 111.3 128.49 109.32 127.05 111.77 127.05 112.53 124.72"/>
                    <polygon class="cls-1" points="115.98 117.72 116.74 120.05 119.19 120.05 117.21 121.49 117.97 123.83 115.98 122.38 114 123.83 114.76 121.49 112.77 120.05 115.23 120.05 115.98 117.72"/>
                    <polygon class="cls-1" points="120.04 111.93 120.8 114.26 123.25 114.26 121.26 115.7 122.02 118.03 120.04 116.59 118.06 118.03 118.81 115.7 116.83 114.26 119.28 114.26 120.04 111.93"/>
                  </g>
                  <g>
                    <polygon class="cls-1" points="184.59 140.68 185.35 143.02 187.8 143.02 185.81 144.46 186.57 146.79 184.59 145.35 182.6 146.79 183.36 144.46 181.38 143.02 183.83 143.02 184.59 140.68"/>
                    <polygon class="cls-1" points="178.91 144.93 179.67 147.26 182.12 147.26 180.14 148.7 180.9 151.03 178.91 149.59 176.93 151.03 177.69 148.7 175.7 147.26 178.16 147.26 178.91 144.93"/>
                    <polygon class="cls-1" points="173.43 140.59 174.18 142.93 176.63 142.93 174.65 144.37 175.41 146.7 173.43 145.26 171.44 146.7 172.2 144.37 170.22 142.93 172.67 142.93 173.43 140.59"/>
                    <polygon class="cls-1" points="175.77 133.05 176.53 135.38 178.98 135.38 177 136.82 177.75 139.15 175.77 137.71 173.79 139.15 174.54 136.82 172.56 135.38 175.01 135.38 175.77 133.05"/>
                    <polygon class="cls-1" points="178.44 125.62 179.2 127.95 181.65 127.95 179.67 129.39 180.43 131.72 178.44 130.28 176.46 131.72 177.22 129.39 175.23 127.95 177.69 127.95 178.44 125.62"/>
                    <polygon class="cls-1" points="181.09 118.2 181.85 120.53 184.3 120.53 182.32 121.98 183.07 124.31 181.09 122.87 179.11 124.31 179.86 121.98 177.88 120.53 180.33 120.53 181.09 118.2"/>
                    <polygon class="cls-1" points="181.65 110.32 182.41 112.65 184.86 112.65 182.88 114.1 183.64 116.43 181.65 114.99 179.67 116.43 180.43 114.1 178.44 112.65 180.9 112.65 181.65 110.32"/>
                    <polygon class="cls-1" points="175.79 108.94 176.55 111.27 179 111.27 177.02 112.71 177.77 115.04 175.79 113.6 173.81 115.04 174.57 112.71 172.58 111.27 175.03 111.27 175.79 108.94"/>
                    <polygon class="cls-1" points="169.44 113.6 170.2 115.93 172.65 115.93 170.67 117.37 171.43 119.7 169.44 118.26 167.46 119.7 168.22 117.37 166.24 115.93 168.69 115.93 169.44 113.6"/>
                    <polygon class="cls-1" points="165.32 119.93 166.08 122.26 168.53 122.26 166.55 123.7 167.31 126.03 165.32 124.59 163.34 126.03 164.1 123.7 162.12 122.26 164.57 122.26 165.32 119.93"/>
                    <polygon class="cls-1" points="162.04 126.93 162.79 129.26 165.25 129.26 163.26 130.7 164.02 133.03 162.04 131.59 160.05 133.03 160.81 130.7 158.83 129.26 161.28 129.26 162.04 126.93"/>
                    <polygon class="cls-1" points="154.51 140.5 155.27 142.83 157.72 142.83 155.73 144.27 156.49 146.6 154.51 145.16 152.52 146.6 153.28 144.27 151.3 142.83 153.75 142.83 154.51 140.5"/>
                    <polygon class="cls-1" points="155.76 131.93 156.52 134.26 158.97 134.26 156.99 135.7 157.74 138.03 155.76 136.59 153.78 138.03 154.54 135.7 152.55 134.26 155 134.26 155.76 131.93"/>
                    <polygon class="cls-1" points="156.45 122.93 157.21 125.26 159.66 125.26 157.68 126.7 158.44 129.03 156.45 127.59 154.47 129.03 155.23 126.7 153.24 125.26 155.7 125.26 156.45 122.93"/>
                    <polygon class="cls-1" points="159.42 115.48 160.18 117.81 162.63 117.81 160.64 119.25 161.4 121.58 159.42 120.14 157.44 121.58 158.19 119.25 156.21 117.81 158.66 117.81 159.42 115.48"/>
                    <polygon class="cls-1" points="160.02 107.81 160.78 110.14 163.23 110.14 161.24 111.58 162 113.91 160.02 112.47 158.04 113.91 158.79 111.58 156.81 110.14 159.26 110.14 160.02 107.81"/>
                    <polygon class="cls-1" points="153.95 109.04 154.71 111.37 157.16 111.37 155.17 112.81 155.93 115.15 153.95 113.71 151.96 115.15 152.72 112.81 150.74 111.37 153.19 111.37 153.95 109.04"/>
                    <polygon class="cls-1" points="147.57 113.71 148.33 116.04 150.78 116.04 148.8 117.48 149.56 119.81 147.57 118.37 145.59 119.81 146.35 117.48 144.36 116.04 146.82 116.04 147.57 113.71"/>
                  </g>
                  <g>
                    <polygon class="cls-1" points="176.29 179.13 177.05 181.47 179.5 181.47 177.52 182.91 178.28 185.24 176.29 183.8 174.31 185.24 175.07 182.91 173.09 181.47 175.54 181.47 176.29 179.13"/>
                    <polygon class="cls-1" points="182.66 174.56 183.42 176.89 185.87 176.89 183.89 178.34 184.64 180.67 182.66 179.23 180.68 180.67 181.43 178.34 179.45 176.89 181.9 176.89 182.66 174.56"/>
                    <polygon class="cls-1" points="188.01 168.79 188.77 171.12 191.22 171.12 189.24 172.56 190 174.89 188.01 173.45 186.03 174.89 186.79 172.56 184.8 171.12 187.26 171.12 188.01 168.79"/>
                    <polygon class="cls-1" points="192.51 162.29 193.26 164.62 195.72 164.62 193.73 166.06 194.49 168.39 192.51 166.95 190.52 168.39 191.28 166.06 189.3 164.62 191.75 164.62 192.51 162.29"/>
                    <polygon class="cls-1" points="197 155.79 197.76 158.12 200.21 158.12 198.23 159.57 198.98 161.9 197 160.46 195.02 161.9 195.77 159.57 193.79 158.12 196.24 158.12 197 155.79"/>
                    <polygon class="cls-1" points="205.93 142.76 206.69 145.09 209.14 145.09 207.15 146.53 207.91 148.86 205.93 147.42 203.94 148.86 204.7 146.53 202.72 145.09 205.17 145.09 205.93 142.76"/>
                    <polygon class="cls-1" points="210.36 136.22 211.11 138.55 213.57 138.55 211.58 139.99 212.34 142.32 210.36 140.88 208.37 142.32 209.13 139.99 207.15 138.55 209.6 138.55 210.36 136.22"/>
                    <polygon class="cls-1" points="214.78 129.68 215.54 132.01 217.99 132.01 216.01 133.45 216.77 135.78 214.78 134.34 212.8 135.78 213.56 133.45 211.57 132.01 214.03 132.01 214.78 129.68"/>
                    <polygon class="cls-1" points="219.73 123.55 220.48 125.88 222.94 125.88 220.95 127.32 221.71 129.65 219.73 128.21 217.74 129.65 218.5 127.32 216.52 125.88 218.97 125.88 219.73 123.55"/>
                    <polygon class="cls-1" points="224.15 116.93 224.91 119.26 227.36 119.26 225.38 120.7 226.14 123.03 224.15 121.59 222.17 123.03 222.93 120.7 220.94 119.26 223.4 119.26 224.15 116.93"/>
                    <polygon class="cls-1" points="230.33 113.93 231.09 116.26 233.54 116.26 231.56 117.7 232.32 120.03 230.33 118.59 228.35 120.03 229.11 117.7 227.12 116.26 229.58 116.26 230.33 113.93"/>
                    <polygon class="cls-1" points="225.76 109.65 226.51 111.98 228.97 111.98 226.98 113.42 227.74 115.75 225.76 114.31 223.77 115.75 224.53 113.42 222.55 111.98 225 111.98 225.76 109.65"/>
                    <polygon class="cls-1" points="217.97 110.97 218.73 113.3 221.18 113.3 219.2 114.75 219.95 117.08 217.97 115.64 215.99 117.08 216.74 114.75 214.76 113.3 217.21 113.3 217.97 110.97"/>
                    <polygon class="cls-1" points="210.95 114.57 211.71 116.9 214.16 116.9 212.17 118.34 212.93 120.68 210.95 119.24 208.97 120.68 209.72 118.34 207.74 116.9 210.19 116.9 210.95 114.57"/>
                    <polygon class="cls-1" points="205.27 119.79 206.03 122.12 208.48 122.12 206.5 123.56 207.26 125.89 205.27 124.45 203.29 125.89 204.05 123.56 202.06 122.12 204.51 122.12 205.27 119.79"/>
                    <polygon class="cls-1" points="202.26 126.61 203.02 128.94 205.47 128.94 203.49 130.39 204.25 132.72 202.26 131.28 200.28 132.72 201.04 130.39 199.05 128.94 201.51 128.94 202.26 126.61"/>
                    <polygon class="cls-1" points="202.86 134.49 203.62 136.82 206.07 136.82 204.09 138.26 204.85 140.59 202.86 139.15 200.88 140.59 201.64 138.26 199.65 136.82 202.11 136.82 202.86 134.49"/>
                  </g>
                  <g>
                    <polygon class="cls-1" points="243.41 162.87 244.17 165.2 246.62 165.2 244.64 166.65 245.39 168.98 243.41 167.54 241.43 168.98 242.18 166.65 240.2 165.2 242.65 165.2 243.41 162.87"/>
                    <polygon class="cls-1" points="237.84 168.47 238.59 170.8 241.05 170.8 239.06 172.24 239.82 174.57 237.84 173.13 235.85 174.57 236.61 172.24 234.63 170.8 237.08 170.8 237.84 168.47"/>
                    <polygon class="cls-1" points="230.63 171.39 231.39 173.73 233.84 173.73 231.86 175.17 232.62 177.5 230.63 176.06 228.65 177.5 229.41 175.17 227.42 173.73 229.88 173.73 230.63 171.39"/>
                    <polygon class="cls-1" points="225.12 167.86 225.88 170.19 228.33 170.19 226.35 171.63 227.1 173.96 225.12 172.52 223.14 173.96 223.89 171.63 221.91 170.19 224.36 170.19 225.12 167.86"/>
                    <polygon class="cls-1" points="224.22 158.93 224.98 161.26 227.43 161.26 225.45 162.7 226.2 165.03 224.22 163.59 222.24 165.03 222.99 162.7 221.01 161.26 223.46 161.26 224.22 158.93"/>
                    <polygon class="cls-1" points="227.93 144.44 228.69 146.77 231.14 146.77 229.16 148.21 229.92 150.54 227.93 149.1 225.95 150.54 226.71 148.21 224.72 146.77 227.18 146.77 227.93 144.44"/>
                    <polygon class="cls-1" points="229.1 136.64 229.86 138.97 232.31 138.97 230.32 140.41 231.08 142.74 229.1 141.3 227.12 142.74 227.87 140.41 225.89 138.97 228.34 138.97 229.1 136.64"/>
                    <polygon class="cls-1" points="229.2 128.74 229.96 131.07 232.41 131.07 230.43 132.51 231.18 134.85 229.2 133.4 227.22 134.85 227.98 132.51 225.99 131.07 228.44 131.07 229.2 128.74"/>
                    <polygon class="cls-1" points="229.3 120.84 230.06 123.17 232.51 123.17 230.53 124.61 231.29 126.95 229.3 125.51 227.32 126.95 228.08 124.61 226.09 123.17 228.55 123.17 229.3 120.84"/>
                  </g>
                  <g>
                    <polygon class="cls-1" points="224.44 150.99 225.2 153.33 227.65 153.33 225.66 154.77 226.42 157.1 224.44 155.66 222.46 157.1 223.21 154.77 221.23 153.33 223.68 153.33 224.44 150.99"/>
                    <polygon class="cls-1" points="216.57 151.71 217.33 154.04 219.78 154.04 217.8 155.48 218.56 157.81 216.57 156.37 214.59 157.81 215.35 155.48 213.36 154.04 215.81 154.04 216.57 151.71"/>
                    <polygon class="cls-1" points="208.69 151.64 209.45 153.97 211.9 153.97 209.92 155.42 210.67 157.75 208.69 156.31 206.71 157.75 207.46 155.42 205.48 153.97 207.93 153.97 208.69 151.64"/>
                    <polygon class="cls-1" points="201.8 149.93 202.56 152.26 205.01 152.26 203.03 153.7 203.79 156.03 201.8 154.59 199.82 156.03 200.58 153.7 198.59 152.26 201.04 152.26 201.8 149.93"/>
                  </g>
                  <g>
                    <polygon class="cls-1" points="256.04 170.4 257.06 172.63 259.49 172.36 257.68 174.01 258.69 176.24 256.56 175.03 254.75 176.68 255.25 174.28 253.11 173.07 255.55 172.8 256.04 170.4"/>
                    <polygon class="cls-1" points="261.32 175.5 262.33 177.74 264.77 177.46 262.96 179.12 263.97 181.35 261.84 180.14 260.03 181.79 260.52 179.39 258.39 178.18 260.83 177.9 261.32 175.5"/>
                    <polygon class="cls-1" points="268.94 176.11 269.95 178.35 272.39 178.07 270.57 179.73 271.59 181.96 269.45 180.75 267.64 182.4 268.14 180 266.01 178.79 268.44 178.51 268.94 176.11"/>
                    <polygon class="cls-1" points="276.41 174.13 277.42 176.36 279.86 176.09 278.05 177.74 279.06 179.98 276.93 178.76 275.12 180.42 275.61 178.02 273.48 176.8 275.92 176.53 276.41 174.13"/>
                    <polygon class="cls-1" points="282.68 169.33 283.7 171.57 286.13 171.29 284.32 172.95 285.33 175.18 283.2 173.97 281.39 175.62 281.89 173.22 279.75 172.01 282.19 171.73 282.68 169.33"/>
                    <polygon class="cls-1" points="286.73 162.72 287.74 164.95 290.18 164.68 288.37 166.33 289.38 168.57 287.25 167.36 285.44 169.01 285.93 166.61 283.8 165.39 286.24 165.12 286.73 162.72"/>
                    <polygon class="cls-1" points="287.93 155.38 288.94 157.62 291.38 157.34 289.57 159 290.58 161.23 288.45 160.02 286.64 161.67 287.13 159.27 285 158.06 287.44 157.78 287.93 155.38"/>
                    <polygon class="cls-1" points="285.59 147.98 286.6 150.21 289.04 149.94 287.23 151.59 288.24 153.82 286.11 152.61 284.3 154.26 284.79 151.86 282.66 150.65 285.1 150.38 285.59 147.98"/>
                    <polygon class="cls-1" points="279.33 143.15 280.35 145.39 282.78 145.11 280.97 146.77 281.98 149 279.85 147.79 278.04 149.44 278.54 147.04 276.4 145.83 278.84 145.55 279.33 143.15"/>
                    <polygon class="cls-1" points="272.67 138.93 273.68 141.17 276.11 140.89 274.3 142.55 275.32 144.78 273.18 143.57 271.37 145.22 271.87 142.82 269.74 141.61 272.17 141.33 272.67 138.93"/>
                    <polygon class="cls-1" points="267.46 133.34 268.47 135.57 270.91 135.3 269.1 136.95 270.11 139.18 267.98 137.97 266.17 139.63 266.66 137.22 264.53 136.01 266.97 135.74 267.46 133.34"/>
                    <polygon class="cls-1" points="264.24 126.34 265.25 128.58 267.69 128.3 265.88 129.96 266.89 132.19 264.76 130.98 262.95 132.63 263.44 130.23 261.31 129.02 263.74 128.74 264.24 126.34"/>
                    <polygon class="cls-1" points="265.9 118.69 266.91 120.92 269.34 120.65 267.53 122.3 268.55 124.53 266.41 123.32 264.6 124.97 265.1 122.57 262.97 121.36 265.4 121.09 265.9 118.69"/>
                    <polygon class="cls-1" points="270.9 112.58 271.91 114.81 274.35 114.54 272.54 116.19 273.55 118.42 271.42 117.21 269.61 118.86 270.1 116.46 267.97 115.25 270.41 114.98 270.9 112.58"/>
                    <polygon class="cls-1" points="277.64 108.54 278.65 110.77 281.09 110.5 279.28 112.15 280.29 114.38 278.16 113.17 276.35 114.82 276.84 112.42 274.71 111.21 277.14 110.94 277.64 108.54"/>
                    <polygon class="cls-1" points="285.34 108.11 286.35 110.34 288.79 110.07 286.98 111.72 287.99 113.95 285.86 112.74 284.05 114.39 284.54 111.99 282.41 110.78 284.84 110.51 285.34 108.11"/>
                    <polygon class="cls-1" points="288.73 114.86 289.74 117.1 292.18 116.82 290.37 118.48 291.38 120.71 289.25 119.5 287.44 121.15 287.93 118.75 285.8 117.54 288.24 117.27 288.73 114.86"/>
                    <polygon class="cls-1" points="289.5 122.73 290.51 124.96 292.95 124.69 291.14 126.34 292.15 128.57 290.02 127.36 288.21 129.01 288.7 126.61 286.57 125.4 289.01 125.13 289.5 122.73"/>
                  </g>
                  <g>
                    <polygon class="cls-1" points="314.5 176.18 315.21 178.54 317.66 178.59 315.64 179.99 316.34 182.33 314.39 180.85 312.37 182.24 313.18 179.93 311.24 178.44 313.69 178.5 314.5 176.18"/>
                    <polygon class="cls-1" points="308.22 180.91 308.92 183.27 311.38 183.32 309.35 184.72 310.06 187.06 308.11 185.58 306.09 186.97 306.91 184.65 304.95 183.17 307.41 183.23 308.22 180.91"/>
                    <polygon class="cls-1" points="302.15 180.37 302.86 182.71 305.3 182.77 303.29 184.17 303.98 186.51 302.03 185.03 300.02 186.42 300.82 184.11 298.89 182.62 301.33 182.68 302.15 180.37"/>
                    <polygon class="cls-1" points="303.48 166.48 304.19 168.84 306.64 168.89 304.63 170.29 305.33 172.63 303.37 171.15 301.36 172.53 302.17 170.23 300.22 168.74 302.68 168.8 303.48 166.48"/>
                    <polygon class="cls-1" points="302.52 173.14 303.23 175.48 305.67 175.54 303.66 176.94 304.36 179.28 302.41 177.8 300.4 179.18 301.21 176.88 299.26 175.38 301.72 175.44 302.52 173.14"/>
                    <polygon class="cls-1" points="305.2 158.78 305.89 161.13 308.34 161.19 306.33 162.57 307.03 164.93 305.08 163.43 303.06 164.83 303.88 162.52 301.94 161.03 304.38 161.09 305.2 158.78"/>
                    <polygon class="cls-1" points="306.99 151.08 307.7 153.42 310.15 153.49 308.13 154.88 308.83 157.24 306.88 155.74 304.86 157.14 305.67 154.82 303.74 153.33 306.19 153.39 306.99 151.08"/>
                    <polygon class="cls-1" points="308.8 143.39 309.49 145.74 311.95 145.8 309.92 147.19 310.62 149.53 308.69 148.05 306.66 149.44 307.48 147.13 305.53 145.64 307.98 145.7 308.8 143.39"/>
                    <polygon class="cls-1" points="312.39 128 313.1 130.35 315.55 130.41 313.53 131.8 314.23 134.16 312.28 132.66 310.27 134.06 311.08 131.75 309.12 130.25 311.58 130.31 312.39 128"/>
                    <polygon class="cls-1" points="314.19 120.31 314.89 122.66 317.34 122.72 315.33 124.12 316.03 126.46 314.08 124.98 312.06 126.36 312.88 124.05 310.92 122.57 313.38 122.62 314.19 120.31"/>
                  </g>
                  <g>
                    <polygon class="cls-1" points="322.09 135.51 322.78 137.86 325.23 137.92 323.22 139.31 323.92 141.66 321.98 140.17 319.95 141.56 320.77 139.25 318.83 137.76 321.27 137.82 322.09 135.51"/>
                    <polygon class="cls-1" points="314.19 135.28 314.89 137.62 317.35 137.69 315.32 139.08 316.02 141.42 314.09 139.94 312.06 141.32 312.88 139.02 310.93 137.53 313.38 137.59 314.19 135.28"/>
                    <polygon class="cls-1" points="306.3 135.04 307 137.4 309.45 137.45 307.42 138.84 308.13 141.19 306.19 139.71 304.16 141.1 304.98 138.78 303.03 137.3 305.49 137.36 306.3 135.04"/>
                    <polygon class="cls-1" points="298.4 134.82 299.11 137.16 301.55 137.23 299.54 138.61 300.23 140.98 298.29 139.47 296.27 140.88 297.08 138.55 295.14 137.06 297.59 137.13 298.4 134.82"/>
                  </g>
                  <g>
                    <polygon class="cls-1" points="361.77 167.74 362.52 169.76 364.95 169.88 362.97 171.01 363.72 173.03 361.75 171.71 359.77 172.86 360.54 170.89 358.56 169.58 361.01 169.69 361.77 167.74"/>
                    <polygon class="cls-1" points="358.48 172.71 359.22 174.72 361.65 174.82 359.68 175.96 360.43 177.98 358.45 176.67 356.48 177.81 357.24 175.85 355.27 174.54 357.71 174.65 358.48 172.71"/>
                    <polygon class="cls-1" points="353.38 168.21 354.14 170.24 356.58 170.34 354.59 171.48 355.33 173.49 353.38 172.19 351.39 173.32 352.16 171.36 350.18 170.05 352.63 170.17 353.38 168.21"/>
                    <polygon class="cls-1" points="351.98 161.34 352.73 163.35 355.17 163.46 353.19 164.6 353.95 166.62 351.97 165.3 349.98 166.43 350.75 164.49 348.78 163.17 351.22 163.28 351.98 161.34"/>
                    <polygon class="cls-1" points="352.15 155.38 352.88 157.4 355.31 157.5 353.34 158.65 354.1 160.67 352.11 159.35 350.14 160.48 350.91 158.54 348.94 157.22 351.37 157.33 352.15 155.38"/>
                    <polygon class="cls-1" points="352.18 149.41 352.94 151.44 355.38 151.54 353.4 152.69 354.14 154.71 352.17 153.39 350.2 154.52 350.96 152.57 348.98 151.25 351.42 151.37 352.18 149.41"/>
                    <polygon class="cls-1" points="350.71 142.93 351.45 144.96 353.89 145.08 351.91 146.21 352.67 148.23 350.7 146.91 348.7 148.04 349.47 146.1 347.5 144.78 349.94 144.89 350.71 142.93"/>
                    <polygon class="cls-1" points="346.49 148.45 347.25 150.46 349.68 150.57 347.71 151.71 348.46 153.73 346.49 152.41 344.51 153.55 345.27 151.6 343.29 150.28 345.73 150.4 346.49 148.45"/>
                    <polygon class="cls-1" points="344.86 154.74 345.6 156.77 348.05 156.87 346.06 158.01 346.81 160.03 344.84 158.71 342.86 159.86 343.63 157.9 341.65 156.59 344.1 156.7 344.86 154.74"/>
                    <polygon class="cls-1" points="344 161.3 344.76 163.31 347.19 163.43 345.21 164.56 345.96 166.59 343.98 165.27 342 166.4 342.77 164.45 340.8 163.14 343.24 163.24 344 161.3"/>
                    <polygon class="cls-1" points="340.87 167.33 341.61 169.35 344.06 169.47 342.08 170.59 342.83 172.62 340.85 171.3 338.88 172.44 339.64 170.49 337.66 169.18 340.11 169.28 340.87 167.33"/>
                    <polygon class="cls-1" points="336.5 172.62 337.24 174.63 339.7 174.75 337.71 175.89 338.45 177.9 336.48 176.58 334.51 177.72 335.26 175.77 333.3 174.46 335.74 174.57 336.5 172.62"/>
                    <polygon class="cls-1" points="329.46 172.24 330.21 174.26 332.66 174.37 330.68 175.52 331.43 177.52 329.46 176.21 327.48 177.35 328.24 175.4 326.26 174.08 328.71 174.2 329.46 172.24"/>
                    <polygon class="cls-1" points="325.68 166.54 326.42 168.55 328.86 168.66 326.89 169.8 327.64 171.81 325.66 170.49 323.68 171.64 324.44 169.69 322.47 168.37 324.91 168.48 325.68 166.54"/>
                    <polygon class="cls-1" points="326.09 159.86 326.84 161.87 329.27 161.99 327.29 163.12 328.04 165.14 326.07 163.82 324.1 164.96 324.85 163.02 322.88 161.7 325.33 161.81 326.09 159.86"/>
                    <polygon class="cls-1" points="327.54 153.43 328.29 155.46 330.73 155.57 328.75 156.71 329.5 158.72 327.53 157.41 325.55 158.54 326.31 156.59 324.33 155.27 326.78 155.38 327.54 153.43"/>
                    <polygon class="cls-1" points="331.3 147.68 332.06 149.71 334.5 149.82 332.53 150.96 333.27 152.98 331.3 151.66 329.32 152.8 330.08 150.84 328.1 149.53 330.55 149.63 331.3 147.68"/>
                    <polygon class="cls-1" points="336.27 142.81 337.01 144.84 339.47 144.95 337.48 146.09 338.23 148.11 336.25 146.79 334.28 147.92 335.04 145.97 333.06 144.65 335.51 144.77 336.27 142.81"/>
                    <polygon class="cls-1" points="343.07 139.77 343.82 141.78 346.25 141.9 344.28 143.04 345.03 145.06 343.05 143.74 341.08 144.88 341.84 142.93 339.86 141.61 342.31 141.72 343.07 139.77"/>
                  </g>
                  <g>
                    <polygon class="cls-1" points="399.27 136.1 400.22 138.02 402.6 137.9 400.78 139.23 401.71 141.16 399.65 140.05 397.81 141.36 398.38 139.35 396.31 138.23 398.73 138.1 399.27 136.1"/>
                    <polygon class="cls-1" points="393.77 131.35 394.68 133.27 397.09 133.14 395.27 134.47 396.18 136.4 394.13 135.3 392.31 136.61 392.86 134.59 390.8 133.47 393.2 133.34 393.77 131.35"/>
                    <polygon class="cls-1" points="386.26 129.84 387.2 131.77 389.6 131.65 387.77 132.97 388.71 134.91 386.64 133.78 384.8 135.11 385.37 133.1 383.3 131.98 385.7 131.86 386.26 129.84"/>
                    <polygon class="cls-1" points="382.64 135.27 383.58 137.2 385.98 137.08 384.14 138.4 385.06 140.34 383.01 139.22 381.2 140.54 381.74 138.53 379.69 137.41 382.09 137.28 382.64 135.27"/>
                    <polygon class="cls-1" points="380 141.36 380.92 143.31 383.32 143.18 381.49 144.51 382.43 146.43 380.36 145.31 378.55 146.64 379.1 144.63 377.04 143.51 379.44 143.37 380 141.36"/>
                    <polygon class="cls-1" points="377.37 147.46 378.29 149.39 380.68 149.27 378.85 150.59 379.79 152.54 377.73 151.42 375.9 152.73 376.45 150.73 374.4 149.6 376.8 149.47 377.37 147.46"/>
                    <polygon class="cls-1" points="369.55 159.36 370.47 161.3 372.87 161.18 371.05 162.49 371.97 164.43 369.92 163.31 368.1 164.64 368.64 162.62 366.59 161.51 368.99 161.37 369.55 159.36"/>
                    <polygon class="cls-1" points="370.6 152.46 371.52 154.4 373.91 154.28 372.11 155.59 373.02 157.53 370.96 156.42 369.14 157.73 369.69 155.73 367.63 154.6 370.04 154.46 370.6 152.46"/>
                    <polygon class="cls-1" points="370.73 145.77 371.67 147.71 374.07 147.58 372.23 148.89 373.18 150.84 371.1 149.71 369.28 151.04 369.83 149.02 367.77 147.9 370.18 147.78 370.73 145.77"/>
                    <polygon class="cls-1" points="371.76 139.14 372.69 141.07 375.09 140.95 373.25 142.27 374.19 144.22 372.13 143.1 370.31 144.41 370.86 142.4 368.81 141.27 371.2 141.15 371.76 139.14"/>
                    <polygon class="cls-1" points="372.77 132.51 373.71 134.46 376.12 134.33 374.29 135.65 375.2 137.58 373.15 136.46 371.33 137.78 371.88 135.78 369.83 134.65 372.21 134.53 372.77 132.51"/>
                    <polygon class="cls-1" points="373.62 125.98 374.55 127.94 376.95 127.8 375.12 129.13 376.06 131.06 373.99 129.93 372.16 131.27 372.73 129.25 370.66 128.13 373.07 128.01 373.62 125.98"/>
                    <polygon class="cls-1" points="365.42 129.46 366.35 131.41 368.75 131.26 366.93 132.59 367.85 134.53 365.79 133.4 363.96 134.73 364.52 132.72 362.46 131.59 364.86 131.47 365.42 129.46"/>
                    <polygon class="cls-1" points="360.17 134.31 361.08 136.24 363.49 136.12 361.66 137.44 362.58 139.38 360.53 138.26 358.71 139.59 359.27 137.56 357.2 136.45 359.59 136.32 360.17 134.31"/>
                  </g>
                </g>
              </g>
            </g>
          </g>
        </g>
      </g>
    </g>
  </g>
</svg>